
          <svg
            width="188"
            height="136"
            viewBox="0 0 188 136"
            fill="none"
            xmlns="http://www.w3.org/2000/svg"
          >
            <g clip-path="url(#clip0_17_2)">
              <path
                d="M0 0C76.8599 22.4898 79.2323 52.3995 79.2323 52.3995L65.1458 53.5343C50.2858 13.8561 0 0 0 0Z"
                fill="#0055D4"
              />
              <path
                d="M188 87.1199C188 87.1199 139.956 61.1211 106.578 54.6298C106.578 54.6298 82.6206 48.2085 74.6733 63.076C71.9551 66.8801 82.5803 66.2293 82.5803 66.2293C107.433 65.4307 130.986 70.0124 154.093 76.8749C173.96 82.7752 188 87.1199 188 87.1199Z"
                fill="#D40000"
              />
              <path
                d="M32.8158 74.1424C36.0993 70.4709 40.4135 67.8755 45.1947 66.6952C52.3732 65.9752 54.5031 62.9577 54.5031 62.9577C60.0432 57.077 59.9994 54.4212 59.9994 54.4212C41.927 58.4537 37.1768 62.0909 37.1768 62.0909C35.8143 62.731 34.8098 65.7336 34.8098 65.7336C31.9866 71.7878 32.8158 74.1424 32.8158 74.1424Z"
                fill="#1A1A1A"
              />
              <path
                d="M92.8888 76.8349L101.609 73.884C119.297 96.6614 117.584 101.821 117.584 101.821C115.278 102.147 109.068 91.1076 102.127 85.1658C95.1861 79.2239 92.8888 76.8349 92.8888 76.8349Z"
                fill="#1A1A1A"
              />
              <path
                d="M16.1649 115.749L15.8809 116.963H12.1366L15.5193 107.225H19.4311L22.9042 116.963H19.1599L18.8373 115.749H16.1649ZM16.7972 113.437H18.2174L17.8044 111.719C17.7058 111.306 17.6282 110.888 17.5718 110.466H17.4428L16.7972 113.437Z"
                fill="#1A1A1A"
              />
              <path
                d="M23.6397 116.963V107.225H27.9131C28.9514 107.179 29.977 107.469 30.8376 108.052C31.2221 108.352 31.5264 108.742 31.7235 109.188C31.9205 109.634 32.0042 110.122 31.9671 110.609C32.0059 111.186 31.854 111.76 31.5347 112.243C31.1499 112.679 30.6444 112.991 30.0822 113.14V113.217C30.3066 113.382 30.5067 113.578 30.6764 113.798L32.7936 116.963H28.7138L27.1647 113.837H27.1V116.963H23.6397ZM27.1 109.885V111.539H27.345C27.6378 111.553 27.9298 111.497 28.1971 111.377C28.3062 111.31 28.3936 111.213 28.4486 111.097C28.5037 110.981 28.524 110.852 28.5073 110.725C28.5258 110.595 28.5078 110.463 28.4554 110.344C28.4029 110.224 28.3181 110.121 28.2104 110.047C27.9479 109.926 27.6599 109.87 27.3712 109.885L27.1 109.885Z"
                fill="#1A1A1A"
              />
              <path
                d="M33.0128 116.963L34.5881 107.225H38.2286L39.5712 112.339H39.6617C39.7563 111.737 39.8382 111.306 39.9071 111.048L41.0043 107.225H44.6064L46.2073 116.963H42.7861L42.3084 111.629H42.2437C42.1873 111.957 42.1097 112.28 42.0115 112.598L40.6042 116.963H38.5384L37.2733 112.843C37.1636 112.446 37.0902 112.039 37.054 111.629H36.9379C36.9032 112.171 36.873 112.563 36.8475 112.804L36.4341 116.963H33.0128Z"
                fill="#1A1A1A"
              />
              <path
                d="M47.3434 116.963V107.225H53.8891V109.885H50.9065V110.815H53.6307V113.347H50.9065V114.302H53.9923V116.963H47.3434ZM50.6615 103.932L52.2753 105.004L50.1448 106.863L48.9701 106.063L50.6615 103.932Z"
                fill="#1A1A1A"
              />
              <path
                d="M55.3992 116.963V107.225H61.9448V109.885H58.9622V110.815H61.6865V113.347H58.9622V114.302H62.048V116.963H55.3992Z"
                fill="#1A1A1A"
              />
              <path
                d="M68.9034 116.963V107.225H72.5055C73.2764 107.217 74.045 107.312 74.7906 107.509C75.4466 107.683 76.0641 107.979 76.6109 108.381C77.1487 108.789 77.5713 109.33 77.8374 109.95C78.1434 110.672 78.2929 111.452 78.2761 112.236C78.3043 112.872 78.1976 113.507 77.9629 114.099C77.7282 114.691 77.3709 115.227 76.9144 115.671C75.9545 116.552 74.6848 117.016 73.3832 116.963L68.9034 116.963ZM72.4407 110.273V114.044H72.6601C73.1984 114.069 73.7293 113.91 74.1645 113.592C74.3614 113.425 74.516 113.214 74.6159 112.976C74.7157 112.738 74.7578 112.48 74.7388 112.223C74.7388 110.923 74.0459 110.273 72.6601 110.273L72.4407 110.273Z"
                fill="#1A1A1A"
              />
              <path
                d="M79.5026 116.963V107.225H86.0482V109.885H83.0656V110.815H85.7898V113.347H83.0656V114.302H86.1514V116.963H79.5026Z"
                fill="#1A1A1A"
              />
              <path
                d="M92.9808 116.963V107.225H96.5187V113.837H99.4879V116.963L92.9808 116.963Z"
                fill="#1A1A1A"
              />
              <path
                d="M101.941 112.042H99.3462L100.908 107.225H104.252L101.941 112.042Z"
                fill="#1A1A1A"
              />
              <path
                d="M108.939 115.749L108.655 116.963H104.91L108.293 107.225H112.205L115.678 116.963H111.934L111.611 115.749H108.939ZM109.571 113.437H110.991L110.578 111.72C110.48 111.306 110.402 110.888 110.345 110.466H110.217L109.571 113.437Z"
                fill="#1A1A1A"
              />
              <path
                d="M116.44 116.963V107.225H119.977V116.963H116.44Z"
                fill="#1A1A1A"
              />
              <path
                d="M121.616 116.963V107.225H125.89C126.928 107.179 127.954 107.469 128.814 108.052C129.199 108.352 129.503 108.742 129.7 109.188C129.897 109.634 129.981 110.122 129.944 110.609C129.983 111.186 129.831 111.76 129.511 112.243C129.127 112.679 128.621 112.991 128.059 113.14V113.217C128.283 113.382 128.483 113.578 128.653 113.798L130.77 116.963H126.69L125.141 113.837H125.077V116.963H121.616ZM125.077 109.885V111.539H125.322C125.615 111.553 125.907 111.497 126.174 111.377C126.283 111.31 126.37 111.213 126.425 111.097C126.48 110.981 126.501 110.852 126.484 110.725C126.503 110.595 126.485 110.463 126.432 110.344C126.38 110.224 126.295 110.121 126.187 110.047C125.925 109.926 125.637 109.87 125.348 109.885L125.077 109.885Z"
                fill="#1A1A1A"
              />
              <path
                d="M18.9286 130.141L17.8701 128.824C17.5304 129.282 17.0914 129.657 16.586 129.921C16.0807 130.184 15.5222 130.331 14.9524 130.348C14.1692 130.364 13.4108 130.072 12.8412 129.534C12.5575 129.274 12.333 128.956 12.1828 128.602C12.0325 128.248 11.96 127.865 11.9702 127.481C11.9528 126.976 12.1051 126.48 12.4026 126.073C12.7679 125.622 13.1962 125.226 13.6744 124.898L14.2811 124.458C13.6637 123.912 13.28 123.149 13.2095 122.328C13.1957 122.038 13.2451 121.748 13.3543 121.48C13.4635 121.211 13.63 120.969 13.8421 120.772C14.2864 120.38 14.8641 120.174 15.4558 120.197C16.034 120.182 16.598 120.377 17.0439 120.746C17.2599 120.925 17.4317 121.152 17.5458 121.408C17.66 121.665 17.7135 121.944 17.7021 122.224C17.7028 122.479 17.6524 122.732 17.554 122.967C17.4467 123.216 17.2958 123.443 17.1084 123.639C16.9378 123.823 16.7568 123.998 16.5663 124.161C16.4024 124.299 16.1914 124.463 15.9333 124.652L17.9604 127.106L19.0962 125.789L19.871 126.589L18.6833 127.984L20.4263 130.141H18.9286ZM14.9908 125.336L14.8746 125.414C14.8662 125.423 14.7803 125.483 14.6167 125.595C14.4528 125.707 14.3498 125.778 14.3068 125.808C14.2637 125.838 14.1711 125.909 14.0289 126.021C13.9258 126.1 13.8267 126.184 13.7321 126.273C13.6759 126.329 13.5965 126.413 13.4931 126.525C13.4074 126.612 13.3356 126.713 13.2803 126.822C13.2414 126.908 13.2031 127.009 13.1642 127.125C13.1263 127.236 13.1067 127.351 13.1059 127.468C13.1079 127.703 13.1582 127.934 13.2538 128.149C13.3493 128.363 13.488 128.555 13.6612 128.714C13.8219 128.885 14.0158 129.022 14.2311 129.117C14.4463 129.211 14.6785 129.261 14.9135 129.263C15.215 129.259 15.5113 129.183 15.7782 129.043C16.0323 128.922 16.2707 128.77 16.4885 128.591C16.6692 128.436 16.8888 128.23 17.1472 127.971L14.9908 125.336ZM15.2492 123.813L15.4042 123.71C15.4383 123.684 15.5222 123.622 15.6558 123.523C15.7893 123.423 15.8817 123.35 15.9332 123.303C15.9852 123.256 16.0605 123.182 16.1591 123.083C16.2411 123.005 16.3147 122.918 16.3787 122.825C16.4325 122.738 16.4759 122.644 16.5079 122.547C16.5461 122.439 16.5658 122.326 16.5662 122.211C16.5745 122.066 16.5504 121.92 16.4957 121.785C16.4409 121.65 16.3568 121.529 16.2494 121.43C16.0204 121.239 15.7281 121.14 15.4299 121.153C15.1458 121.146 14.8704 121.25 14.6619 121.443C14.5585 121.537 14.4767 121.651 14.4221 121.78C14.3675 121.908 14.3414 122.046 14.3456 122.186C14.3471 122.348 14.3822 122.509 14.4486 122.657C14.4999 122.783 14.5625 122.904 14.6356 123.019C14.6918 123.101 14.7886 123.228 14.9261 123.4L15.2492 123.813Z"
                fill="#1A1A1A"
              />
              <path
                d="M25.6549 130.141V120.403H27.669C29.0783 120.349 30.4621 120.79 31.5806 121.65C32.1003 122.082 32.5113 122.63 32.7804 123.25C33.0495 123.871 33.1691 124.545 33.1297 125.22C33.1725 125.907 33.0561 126.594 32.7897 127.228C32.5233 127.862 32.114 128.426 31.5938 128.875C30.4645 129.754 29.0597 130.203 27.6302 130.141H25.6549ZM26.8684 121.514V129.03H27.2944C27.8939 129.036 28.4921 128.971 29.0764 128.837C29.5924 128.715 30.0835 128.505 30.5284 128.217C30.9692 127.925 31.322 127.519 31.5485 127.042C31.7911 126.481 31.9163 125.877 31.9163 125.266C31.9163 124.655 31.7911 124.051 31.5485 123.49C31.3221 123.012 30.9666 122.607 30.5221 122.321C30.075 122.038 29.5842 121.831 29.0695 121.708C28.4877 121.573 27.8917 121.508 27.2944 121.514H26.8684Z"
                fill="#1A1A1A"
              />
              <path
                d="M34.7819 130.141V120.403H40.011V121.514H35.996V124.239H39.8949V125.35H35.996V129.03H40.011V130.141H34.7819Z"
                fill="#1A1A1A"
              />
              <path
                d="M47.3309 120.403V129.03H50.2874V130.141H46.1169V120.403H47.3309Z"
                fill="#1A1A1A"
              />
              <path
                d="M51.346 120.197L52.3662 120.597L50.6489 124.045L49.926 123.748L51.346 120.197Z"
                fill="#1A1A1A"
              />
              <path
                d="M54.509 130.141V120.403H59.7381V121.514H55.723V124.239H59.622V125.35H55.723V129.03H59.7381V130.141H54.509Z"
                fill="#1A1A1A"
              />
              <path
                d="M66.9676 121.669L65.9989 122.25C65.8498 121.967 65.6246 121.731 65.3486 121.569C65.0727 121.407 64.757 121.325 64.4371 121.333C64.0297 121.331 63.6337 121.468 63.314 121.72C63.1559 121.833 63.0275 121.983 62.9398 122.156C62.852 122.329 62.8075 122.521 62.8101 122.715C62.8101 123.301 63.2621 123.766 64.166 124.11L64.8631 124.381C65.5356 124.617 66.1466 125.001 66.6513 125.505C67.0869 126.003 67.3113 126.652 67.277 127.313C67.2889 127.718 67.2151 128.122 67.0605 128.497C66.9059 128.872 66.6739 129.21 66.3797 129.489C66.0859 129.771 65.7389 129.993 65.3589 130.14C64.9789 130.288 64.5734 130.358 64.166 130.348C63.4205 130.362 62.6985 130.087 62.1519 129.579C61.5936 129.07 61.2401 128.374 61.1574 127.622L62.384 127.364C62.3739 127.61 62.4165 127.854 62.5089 128.081C62.6013 128.309 62.7415 128.513 62.9198 128.682C63.0981 128.855 63.3092 128.992 63.5409 129.083C63.7726 129.173 64.0201 129.217 64.2688 129.211C64.511 129.217 64.7515 129.169 64.9734 129.072C65.1954 128.975 65.3935 128.831 65.5538 128.649C65.8893 128.286 66.0719 127.807 66.0633 127.313C66.0742 127.105 66.04 126.898 65.9631 126.705C65.8861 126.512 65.7683 126.339 65.6177 126.196C65.252 125.883 64.8348 125.636 64.3848 125.466L63.7134 125.182C63.1387 124.954 62.6113 124.621 62.1579 124.2C61.9676 124.004 61.8196 123.772 61.7229 123.516C61.6263 123.261 61.5833 122.988 61.5963 122.715C61.5854 122.365 61.6568 122.017 61.8048 121.7C61.9528 121.382 62.1733 121.104 62.4484 120.888C63.0172 120.427 63.7307 120.182 64.4625 120.197C64.9771 120.177 65.4865 120.305 65.9305 120.566C66.3745 120.827 66.7344 121.21 66.9676 121.669Z"
                fill="#1A1A1A"
              />
              <path
                d="M70.2598 126.06V130.141H69.0458V120.403H70.4406C71.5031 120.306 72.5686 120.553 73.4805 121.107C73.7832 121.365 74.021 121.691 74.1746 122.057C74.3283 122.424 74.3936 122.822 74.3652 123.219C74.3956 123.627 74.3249 124.036 74.1593 124.41C73.9937 124.784 73.7384 125.111 73.4159 125.363C72.6929 125.854 71.8303 126.099 70.9569 126.06H70.2598ZM70.2598 121.488V124.975H70.647C70.9603 124.978 71.2733 124.956 71.5831 124.91C71.8612 124.866 72.1323 124.785 72.39 124.672C72.6507 124.561 72.8682 124.368 73.0094 124.123C73.1645 123.838 73.2404 123.517 73.229 123.193C73.2408 122.876 73.1601 122.562 72.9968 122.289C72.8407 122.047 72.6092 121.863 72.338 121.766C72.0713 121.663 71.7943 121.589 71.5117 121.546C71.2037 121.505 70.8931 121.486 70.5824 121.488L70.2598 121.488Z"
                fill="#1A1A1A"
              />
              <path
                d="M80.6912 127.7H76.2243L75.1143 130.141H73.8099L78.458 119.99L83.1056 130.141H81.8017L80.6912 127.7ZM80.188 126.589L78.458 122.651L76.7281 126.589H80.188Z"
                fill="#1A1A1A"
              />
              <path
                d="M91.4457 120.856V122.263C90.7415 121.63 89.823 121.288 88.8763 121.308C88.3646 121.299 87.8567 121.398 87.3861 121.6C86.9155 121.801 86.4928 122.1 86.1457 122.476C85.4308 123.231 85.0312 124.23 85.0289 125.27C85.0265 126.309 85.4216 127.31 86.1331 128.068C86.4771 128.445 86.8974 128.744 87.366 128.945C87.8345 129.147 88.3406 129.246 88.8506 129.237C89.8123 129.244 90.7406 128.884 91.4457 128.23V129.663C90.4779 130.221 89.3544 130.447 88.2461 130.307C87.1379 130.167 86.1057 129.669 85.3068 128.888C84.8246 128.43 84.443 127.877 84.1862 127.263C83.9294 126.649 83.8031 125.989 83.8154 125.324C83.8019 124.645 83.9292 123.971 84.1892 123.344C84.4493 122.717 84.8364 122.151 85.3262 121.682C85.8055 121.2 86.3775 120.819 87.0075 120.564C87.6376 120.309 88.3128 120.184 88.9924 120.197C89.8559 120.181 90.7062 120.409 91.4457 120.856Z"
                fill="#1A1A1A"
              />
              <path
                d="M93.3301 130.141V120.403H98.5592V121.514H94.5441V124.239H98.4431V125.35H94.5441V129.03H98.5592V130.141H93.3301Z"
                fill="#1A1A1A"
              />
              <path
                d="M18.9292 130.141L17.8702 128.824C17.5306 129.282 17.0916 129.657 16.5863 129.921C16.081 130.185 15.5225 130.331 14.9527 130.348C14.1695 130.364 13.4112 130.072 12.8417 129.534C12.558 129.274 12.3334 128.956 12.183 128.602C12.0327 128.248 11.9601 127.865 11.9701 127.481C11.9528 126.976 12.1051 126.481 12.4025 126.073C12.7679 125.622 13.1962 125.226 13.6743 124.898L14.2814 124.459C13.6637 123.912 13.2799 123.149 13.2095 122.328C13.1956 122.038 13.245 121.749 13.3543 121.48C13.4636 121.211 13.6301 120.969 13.8422 120.772C14.2865 120.38 14.8643 120.174 15.456 120.197C16.0342 120.183 16.5981 120.377 17.0441 120.746C17.2601 120.925 17.4319 121.152 17.5461 121.408C17.6603 121.664 17.7139 121.944 17.7026 122.224C17.703 122.479 17.6525 122.732 17.5541 122.967C17.4469 123.216 17.2959 123.443 17.1083 123.639C16.9379 123.823 16.757 123.998 16.5666 124.162C16.4029 124.299 16.192 124.463 15.9338 124.652L17.9606 127.106L19.0967 125.789L19.8713 126.589L18.6838 127.984L20.4265 130.141L18.9292 130.141ZM14.9913 125.337L14.8752 125.414C14.8666 125.423 14.7805 125.483 14.6168 125.595C14.4532 125.707 14.3499 125.778 14.3071 125.808C14.2639 125.839 14.1715 125.909 14.0293 126.021C13.9261 126.1 13.827 126.184 13.7324 126.273C13.6763 126.329 13.5967 126.413 13.4936 126.525C13.4077 126.612 13.3359 126.713 13.281 126.822C13.2419 126.908 13.2034 127.009 13.1644 127.125C13.1268 127.236 13.1072 127.351 13.1064 127.468C13.1084 127.703 13.1587 127.934 13.2542 128.149C13.3498 128.363 13.4884 128.556 13.6616 128.714C13.8224 128.886 14.0163 129.023 14.2315 129.117C14.4467 129.211 14.6788 129.261 14.9138 129.263C15.2154 129.259 15.5117 129.184 15.7788 129.043C16.0329 128.922 16.2714 128.77 16.4891 128.591C16.6699 128.436 16.8894 128.23 17.1476 127.971L14.9913 125.337ZM15.2496 123.813L15.4042 123.71C15.4385 123.684 15.5225 123.621 15.6564 123.523C15.7896 123.423 15.8821 123.35 15.9338 123.303C15.9856 123.256 16.061 123.183 16.1598 123.083C16.2416 123.005 16.3151 122.918 16.3791 122.825C16.4329 122.738 16.4764 122.645 16.5085 122.547C16.5464 122.439 16.5661 122.326 16.5665 122.212C16.5749 122.066 16.5509 121.92 16.4961 121.785C16.4414 121.65 16.3574 121.529 16.2502 121.43C16.0211 121.239 15.7288 121.14 15.4305 121.153C15.1464 121.146 14.8708 121.25 14.6621 121.443C14.5589 121.537 14.4771 121.652 14.4225 121.78C14.3679 121.908 14.3417 122.046 14.3457 122.186C14.3473 122.348 14.3824 122.509 14.449 122.657C14.5003 122.783 14.563 122.904 14.6364 123.019C14.6921 123.101 14.7888 123.228 14.9266 123.4L15.2496 123.813ZM25.6552 130.141V120.403H27.6691C29.0784 120.35 30.4623 120.79 31.5809 121.65C32.1006 122.082 32.5116 122.63 32.7807 123.25C33.0498 123.871 33.1694 124.546 33.13 125.221C33.1728 125.907 33.0564 126.594 32.7899 127.228C32.5234 127.862 32.114 128.426 31.5937 128.875C30.4646 129.754 29.0599 130.203 27.6306 130.141L25.6552 130.141ZM26.8684 121.514V129.03H27.2947C27.8942 129.036 28.4922 128.971 29.0764 128.837C29.5926 128.715 30.0839 128.505 30.529 128.217C30.9698 127.925 31.3224 127.519 31.5485 127.042C31.7914 126.481 31.9168 125.877 31.9168 125.266C31.9168 124.655 31.7914 124.05 31.5485 123.49C31.3224 123.012 30.9669 122.607 30.5223 122.321C30.0752 122.038 29.5844 121.831 29.0698 121.708C28.4879 121.573 27.892 121.508 27.2947 121.514L26.8684 121.514ZM34.7828 130.141V120.403H40.0115V121.514H35.9965V124.239H39.8955V125.35H35.9966V129.03H40.0116V130.141L34.7828 130.141ZM47.3317 120.404V129.03H50.2881V130.141H46.118V120.403L47.3317 120.404ZM51.3467 120.197L52.3668 120.597L50.6492 124.046L49.9266 123.748L51.3467 120.197ZM54.5096 130.141V120.403H59.7383V121.514H55.7233V124.239H59.6223V125.35H55.7234V129.03H59.7384V130.141L54.5096 130.141ZM66.9681 121.669L65.9995 122.25C65.8504 121.967 65.6252 121.731 65.3492 121.569C65.0732 121.407 64.7574 121.325 64.4375 121.333C64.03 121.331 63.6339 121.468 63.3142 121.721C63.1562 121.834 63.0279 121.983 62.9403 122.156C62.8526 122.329 62.8082 122.521 62.8108 122.715C62.8108 123.301 63.2627 123.766 64.1663 124.11L64.8633 124.381C65.5359 124.617 66.147 125.001 66.6517 125.505C67.0875 126.003 67.312 126.652 67.2778 127.313C67.2897 127.718 67.2159 128.122 67.0613 128.497C66.9066 128.872 66.6747 129.21 66.3805 129.489C66.0866 129.772 65.7395 129.993 65.3595 130.14C64.9794 130.288 64.5738 130.358 64.1663 130.348C63.4208 130.362 62.6988 130.087 62.1523 129.579C61.594 129.07 61.2405 128.374 61.158 127.623L62.3845 127.365C62.3743 127.61 62.4169 127.854 62.5094 128.081C62.6018 128.309 62.7419 128.513 62.9203 128.682C63.0986 128.855 63.3098 128.992 63.5415 129.083C63.7732 129.174 64.0207 129.217 64.2696 129.211C64.5117 129.217 64.7521 129.17 64.974 129.073C65.1959 128.976 65.3939 128.831 65.5541 128.65C65.8899 128.286 66.0726 127.807 66.0642 127.313C66.075 127.105 66.0408 126.898 65.9639 126.705C65.8871 126.513 65.7693 126.339 65.6189 126.196C65.2531 125.883 64.8358 125.636 64.3856 125.466L63.7143 125.182C63.1393 124.954 62.6118 124.621 62.1585 124.2C61.9682 124.004 61.8202 123.771 61.7236 123.516C61.6271 123.261 61.584 122.988 61.5971 122.715C61.5861 122.365 61.6575 122.017 61.8055 121.7C61.9535 121.382 62.174 121.104 62.4492 120.888C63.018 120.427 63.7314 120.182 64.4631 120.197C64.9777 120.177 65.4871 120.305 65.9311 120.566C66.375 120.827 66.7349 121.21 66.9681 121.669ZM70.2605 126.06V130.141H69.0468V120.403H70.4408C71.5035 120.307 72.5692 120.553 73.4814 121.107C73.784 121.365 74.0218 121.691 74.1754 122.058C74.3291 122.424 74.3943 122.822 74.3659 123.219C74.3964 123.627 74.3257 124.036 74.1601 124.41C73.9945 124.784 73.7391 125.111 73.4167 125.363C72.6937 125.855 71.831 126.099 70.9575 126.06L70.2605 126.06ZM70.2605 121.488V124.975H70.6477C70.9609 124.978 71.2738 124.957 71.5836 124.911C71.8616 124.866 72.1327 124.785 72.3905 124.672C72.6512 124.561 72.8688 124.368 73.0104 124.123C73.1653 123.838 73.241 123.517 73.2298 123.193C73.2415 122.876 73.1607 122.561 72.9971 122.289C72.8412 122.047 72.6097 121.863 72.3387 121.766C72.0721 121.663 71.7952 121.589 71.5127 121.546C71.2046 121.505 70.8939 121.486 70.5831 121.488L70.2605 121.488ZM80.6917 127.7H76.2247L75.1147 130.141H73.8107L78.4585 119.99L83.1063 130.141H81.8022L80.6917 127.7ZM80.1883 126.59L78.4584 122.651L76.7285 126.589L80.1883 126.59ZM91.446 120.855V122.263C90.742 121.63 89.8235 121.288 88.8769 121.308C88.3651 121.299 87.8573 121.399 87.3867 121.6C86.9162 121.801 86.4935 122.1 86.1464 122.476C85.4316 123.231 85.0322 124.23 85.0298 125.27C85.0274 126.309 85.4222 127.31 86.1336 128.068C86.4776 128.445 86.8979 128.744 87.3665 128.946C87.8351 129.147 88.3412 129.246 88.8512 129.237C89.8129 129.245 90.7411 128.884 91.446 128.23V129.663C90.4782 130.221 89.3547 130.447 88.2465 130.307C87.1383 130.167 86.1061 129.669 85.3071 128.888C84.8252 128.43 84.4437 127.877 84.187 127.263C83.9303 126.649 83.804 125.989 83.8161 125.324C83.8025 124.645 83.9297 123.972 84.1897 123.345C84.4497 122.718 84.8369 122.152 85.3267 121.682C85.806 121.2 86.378 120.82 87.0082 120.564C87.6384 120.309 88.3137 120.184 88.9934 120.197C89.8566 120.181 90.7067 120.41 91.446 120.855ZM93.331 130.141V120.403H98.5597V121.514H94.5447V124.239H98.4436V125.35H94.5447V129.03H98.5597V130.141L93.331 130.141Z"
                fill="#1A1A1A"
              />
              <path
                d="M90.4723 104.134H82.1101C60.1248 94.4677 36.2043 90.0127 12.2144 91.1167C52.1002 82.7107 90.4723 104.134 90.4723 104.134Z"
                fill="#1A1A1A"
              />
              <path
                d="M112.258 120.532C118.9 125.179 125.16 130.351 130.975 136C130.975 136 120.322 122.086 116.475 120.532H112.258Z"
                fill="#1A1A1A"
              />
            </g>
            <defs>
              <clipPath id="clip0_17_2">
                <rect width="188" height="136" fill="white" />
              </clipPath>
            </defs>
          </svg>